<?xml version="1.0" encoding="UTF-8"?>
<svg width="48px" height="48px" viewBox="0 0 48 48" version="1.1" xmlns="http://www.w3.org/2000/svg" xmlns:xlink="http://www.w3.org/1999/xlink">
    <title>Combined Shape</title>
    <g id="Symbols" stroke="none" stroke-width="1" fill="none" fill-rule="evenodd">
        <g id="ORGANISMO-/-Footer" transform="translate(-346.000000, -372.000000)" fill="#000000" fill-rule="nonzero">
            <g id="Group" transform="translate(189.000000, 76.000000)">
                <g id="RRSS" transform="translate(157.000000, 296.000000)">
                    <path d="M33,0 C41.283,0 48,6.717 48,15 L48,15 L48,33 C48,41.283 41.283,48 33,48 L33,48 L15,48 C6.717,48 0,41.283 0,33 L0,33 L0,15 C0,6.717 6.717,0 15,0 L15,0 Z M33,4.5 L15,4.5 C9.21,4.5 4.5,9.21 4.5,15 L4.5,15 L4.5,33 C4.5,38.79 9.21,43.5 15,43.5 L15,43.5 L33,43.5 C38.79,43.5 43.5,38.79 43.5,33 L43.5,33 L43.5,15 C43.5,9.21 38.79,4.5 33,4.5 L33,4.5 Z M24.4705882,12.2352941 C31.2275294,12.2352941 36.7058824,17.7136471 36.7058824,24.4705882 C36.7058824,31.2275294 31.2275294,36.7058824 24.4705882,36.7058824 C17.7136471,36.7058824 12.2352941,31.2275294 12.2352941,24.4705882 C12.2352941,17.7136471 17.7136471,12.2352941 24.4705882,12.2352941 Z M24.4705882,16.8235294 C20.2555294,16.8235294 16.8235294,20.2524706 16.8235294,24.4705882 C16.8235294,28.6856471 20.2555294,32.1176471 24.4705882,32.1176471 C28.6856471,32.1176471 32.1176471,28.6856471 32.1176471,24.4705882 C32.1176471,20.2524706 28.6856471,16.8235294 24.4705882,16.8235294 Z M37.1764706,9.41176471 C37.9561667,9.41176471 38.5882353,10.0438333 38.5882353,10.8235294 C38.5882353,11.6032255 37.9561667,12.2352941 37.1764706,12.2352941 C36.3967745,12.2352941 35.7647059,11.6032255 35.7647059,10.8235294 C35.7647059,10.0438333 36.3967745,9.41176471 37.1764706,9.41176471 Z" id="Combined-Shape"></path>
                </g>
            </g>
        </g>
    </g>
</svg>