<?xml version="1.0" encoding="UTF-8"?>
<svg width="48px" height="48px" viewBox="0 0 48 48" version="1.1" xmlns="http://www.w3.org/2000/svg" xmlns:xlink="http://www.w3.org/1999/xlink">
    <title>Linkedin</title>
    <g id="Symbols" stroke="none" stroke-width="1" fill="none" fill-rule="evenodd">
        <g id="ORGANISMO-/-Footer" transform="translate(-730.000000, -372.000000)" fill="#000000" fill-rule="nonzero">
            <g id="Group" transform="translate(189.000000, 76.000000)">
                <g id="RRSS" transform="translate(157.000000, 296.000000)">
                    <path d="M394.352941,15.0588235 L394.352941,48 L384,48 L384,15.0588235 L394.352941,15.0588235 Z M409.77369,15.0588235 L409.77369,21.3565775 C411.079358,19.6017112 415.041283,15.0588235 421.288128,15.0588235 C422.018824,15.0588235 422.641711,15.1396791 423.210695,15.2534759 C423.357433,15.2774332 423.501176,15.304385 423.64492,15.3373262 C423.764706,15.3702674 423.872513,15.4091979 423.98631,15.4451337 C428.589091,16.6459893 432,20.7935829 432,25.7706952 L432,25.7706952 L432,48 L421.288128,48 L421.288128,48 L421.288128,27.0374332 C417.87123,18.7542246 409.77369,30.0320856 409.77369,30.0320856 L409.77369,30.0320856 L409.77369,48 L399.058824,48 L399.058824,15.0588235 L409.77369,15.0588235 Z M389.176471,-2.29150032e-13 C392.035356,-2.29150032e-13 394.352941,2.31758482 394.352941,5.17647059 C394.352941,8.03535635 392.035356,10.3529412 389.176471,10.3529412 C386.317585,10.3529412 384,8.03535635 384,5.17647059 C384,2.31758482 386.317585,-2.29150032e-13 389.176471,-2.29150032e-13 Z" id="Linkedin"></path>
                </g>
            </g>
        </g>
    </g>
</svg>