<?xml version="1.0" encoding="UTF-8"?>
<svg width="39px" height="39px" viewBox="0 0 39 39" version="1.1" xmlns="http://www.w3.org/2000/svg" xmlns:xlink="http://www.w3.org/1999/xlink">
    <title>Logo/03_Symbol/02_Secondary</title>
    <g id="01_Home-v0.3" stroke="none" stroke-width="1" fill="none" fill-rule="evenodd">
        <g id="Logo-/-Symbol-/-02_Secondary" fill="#000000">
            <path d="M19.394,3.19744231e-14 C30.087,3.19744231e-14 38.787,8.699 38.787,19.393 C38.787,30.087 30.087,38.786 19.394,38.786 C8.7,38.786 2.52242671e-13,30.087 2.52242671e-13,19.393 C2.52242671e-13,8.699 8.7,3.19744231e-14 19.394,3.19744231e-14 Z M19.394,4.549 C11.208,4.549 4.549,11.208 4.549,19.393 C4.549,27.578 11.208,34.237 19.394,34.237 C27.58,34.237 34.239,27.578 34.239,19.393 C34.239,11.208 27.58,4.549 19.394,4.549 Z M16.4206,10.3066 C18.0236,10.5726 19.2116,11.4726 20.1446,12.7536 C20.5600766,13.3228914 20.8696243,13.9345543 21.0730382,14.5836766 C21.3242004,14.4985946 21.5934829,14.4418763 21.8783,14.4113 C22.8903,14.3033 23.8693,14.4263 24.7823,14.8953 C25.7043,15.3683 26.3063,16.1373 26.7133,17.0703 C26.8983,17.4943 26.8943,17.5033 27.3313,17.3203 C28.0213,17.0323 28.6163,16.5903 29.2123,16.1503 C29.7183,15.7763 30.2203,15.3973 30.7363,15.0123 C30.8723,14.9093 31.0663,14.9903 31.0933,15.1583 C31.1143,15.2863 31.1123,15.4333 31.1193,15.5393 C31.1623,16.2253 31.1843,16.9143 31.2023,17.6023 C31.1993,18.1453 31.0003,18.4263 30.7033,18.6633 C29.7853,19.2343 28.8733,19.8153 27.9673,20.4043 C27.8753,20.4643 27.7483,20.5533 27.7173,20.9383 C27.6787286,21.6811571 27.6738306,22.2525857 27.6730872,22.8905595 L27.6723,23.7033 L30.7593,23.7033 C31.1513,23.7043 31.2173,23.7703 31.2153433,24.1593 C31.2113,24.8673 31.2053,25.5763 31.1993,26.2843 C31.1973,26.5483 31.1293,26.6343 30.8763,26.6733 C30.7833,26.6873 30.6903,26.6923 30.5963,26.6923 C27.7523,26.6943 24.9083,26.6793 22.0663,26.7023 C20.5253,26.7153 18.9843,26.7963 17.4433,26.8393 C16.1383,26.8753 14.8323,26.9023 13.5273,26.9313 C13.2893,26.9353 13.2273,26.8553 13.2083,26.6113 C13.1523,25.8533 13.0813,25.0973 13.0293,24.3393 C12.9873,23.7393 12.9383,23.7103 13.5703,23.7323 C15.9043,23.8163 18.2383,23.8923 20.5743,23.8553 C21.0393,23.8443 20.9883,23.7583 20.7413,23.4993 C20.2252556,22.8873 19.7371835,22.2570323 19.3534273,21.5601892 C19.2548582,21.6586791 19.1497424,21.755477 19.0406,21.8506 C17.7306,22.9936 16.1926,23.3586 14.4956,23.0436 C13.7786,22.9096 13.1546,22.5636 12.6146,22.0746 C12.3386,21.8236 12.0706,21.5616 11.7976,21.3056 C11.7566,21.2666 11.7116,21.2316 11.6226,21.1566 C11.5816,21.1446 11.5756,21.1736 11.5706,21.5706 C11.5616,22.4176 11.5586,23.2636 11.5566,24.1106 C11.5536,24.8386 11.5546,25.5676 11.5506,26.2956 C11.5506,26.3926 11.5596,26.5076 11.5146,26.5836 C11.4606,26.6696 11.3496,26.7806 11.2646,26.7806 C10.4976,26.7826 9.7296,26.7676 8.9636,26.7456 C8.7076,26.7376 8.6296,26.6226 8.6306,26.3156 C8.6366,24.5236 8.6486,22.7316 8.6496,20.9396 C8.6516,18.9246 8.6776,16.9106 8.6266,14.8966 C8.5976,13.7256 8.4386,12.5576 8.3376,11.3896 C8.3216,11.2126 8.2976,11.0386 8.2776,10.8616 C8.2596,10.7006 8.3276,10.6266 8.4936,10.6046 C9.3386,10.4976 10.1816,10.3836 11.0236,10.2666 C11.3046,10.2276 11.3866,10.2546 11.4326,10.5436 C11.4946,10.9166 11.5156,11.2966 11.5536,11.6746 L11.6026,12.1846 C11.6246,12.1876 11.6456,12.1906 11.6666,12.1936 C11.7186,12.1456 11.7716,12.1006 11.8216,12.0516 C12.3936,11.4876 13.0056,10.9796 13.7366,10.6266 C14.5976,10.2106 15.4946,10.1536 16.4206,10.3066 Z M22.8193,17.4803 C22.1543,17.5233 21.5933,17.9073 21.3593,18.5353 C21.0103,19.4713 21.1393,20.3373 21.5753,21.2373 C22.0383,22.1903 22.7373,22.9613 23.4923,23.6843 C23.5293,23.7213 23.5953,23.7443 23.6483,23.7443 L25.4253,23.7463 C25.5613,22.8763 25.6393,21.8513 25.6123,20.9733 C25.5923,20.3203 25.4693,19.6863 25.2143,19.0813 C24.7403,17.9563 23.9283,17.4093 22.8193,17.4803 Z M12.9056,13.5486 C12.0656,14.4086 11.6636,15.4396 11.6585637,16.6346 C11.6546,17.7246 11.9806,18.6946 12.7036,19.5226 C13.8356,20.8206 15.8656,20.9516 17.0896,19.6956 C17.9546,18.8066 18.3996,17.7496 18.3626,16.5036 C18.3226,15.1456 17.7566,14.0476 16.6576,13.2526 C15.5886,12.4786 13.9216,12.5106 12.9056,13.5486 Z"></path>
        </g>
    </g>
</svg>