<?xml version="1.0" encoding="UTF-8"?>
<svg width="406px" height="111px" viewBox="0 0 406 111" version="1.1" xmlns="http://www.w3.org/2000/svg" xmlns:xlink="http://www.w3.org/1999/xlink">
    <title>Logo/02_Secondary/P2925</title>
    <defs>
        <filter id="filter-1">
            <feColorMatrix in="SourceGraphic" type="matrix" values="0 0 0 0 1.000000 0 0 0 0 1.000000 0 0 0 0 1.000000 0 0 0 1.000000 0"></feColorMatrix>
        </filter>
    </defs>
    <g id="01_Home-v0.3" stroke="none" stroke-width="1" fill="none" fill-rule="evenodd">
        <g id="v0.3-/-01_home_1920" transform="translate(-162.000000, -67.000000)">
            <g id="Logo/02_Secondary/P2925" transform="translate(162.000000, 67.000000)" filter="url(#filter-1)">
                <g>
                    <path d="M275.202391,86.3523026 C278.396699,86.3523026 280.955197,87.4244309 282.877885,89.5686875 C284.800574,91.7129441 285.761918,94.5736466 285.761918,98.150795 C285.761918,101.79908 284.800574,104.69281 282.877885,106.831986 C280.955197,108.971161 278.350921,110.040749 275.065056,110.040749 C271.931786,110.040749 269.411437,108.955917 267.504008,106.786255 C265.596579,104.616592 264.642865,101.748268 264.642865,98.1812821 C264.642865,94.5939713 265.601666,91.725647 267.519267,89.5763092 C269.436869,87.4269715 271.997911,86.3523026 275.202391,86.3523026 Z M254.569676,86.3523026 C256.594094,86.3523026 258.964392,86.6825791 261.680571,87.3431321 L261.680571,87.3431321 L261.680571,90.3461075 L261.243584,90.1973016 C258.3624,89.2294584 256.122505,88.7455368 254.523898,88.7455368 C252.072216,88.7455368 250.17496,89.5737686 248.83213,91.2302323 C247.4893,92.8866959 246.817885,95.2240372 246.817885,98.2422562 C246.817885,101.118202 247.535078,103.386948 248.969465,105.048492 C250.403851,106.710037 252.362145,107.54081 254.844346,107.54081 C256.980666,107.54081 259.269581,106.885338 261.71109,105.574394 L261.71109,105.574394 L261.71109,108.31823 L261.290979,108.526816 C259.178501,109.536104 256.887202,110.040749 254.417082,110.040749 C250.907413,110.040749 248.19632,109.01181 246.283805,106.953934 C244.371289,104.896057 243.415032,101.982002 243.415032,98.2117691 C243.415032,94.4516983 244.389092,91.5351029 246.337213,89.4619828 C248.285334,87.3888626 251.029488,86.3523026 254.569676,86.3523026 Z M92.8018338,86.3523026 C94.8262517,86.3523026 97.19655,86.6825791 99.9127289,87.3431321 L99.9127289,87.3431321 L99.9127289,90.3461075 L99.4757416,90.1973016 C96.594558,89.2294584 94.3546626,88.7455368 92.7560555,88.7455368 C90.3043735,88.7455368 88.4071175,89.5737686 87.0642875,91.2302323 C85.7214575,92.8866959 85.0500425,95.2240372 85.0500425,98.2422562 C85.0500425,101.118202 85.7672358,103.386948 87.2016224,105.048492 C88.6360089,106.710037 90.5943027,107.54081 93.0765035,107.54081 C95.2128239,107.54081 97.5017387,106.885338 99.9432477,105.574394 L99.9432477,105.574394 L99.9432477,108.31823 L99.5231365,108.526816 C97.4106589,109.536104 95.1193599,110.040749 92.6492394,110.040749 C89.1395702,110.040749 86.4284778,109.01181 84.5159624,106.953934 C82.603447,104.896057 81.6471893,101.982002 81.6471893,98.2117691 C81.6471893,94.4516983 82.6212497,91.5351029 84.5693704,89.4619828 C86.5174912,87.3888626 89.2616456,86.3523026 92.8018338,86.3523026 Z M158.023201,86.9163132 L158.023201,101.15377 L158.027086,101.525755 C158.071122,103.601275 158.489461,105.126122 159.282104,106.100296 C160.121372,107.131775 161.456573,107.647514 163.287705,107.647514 C165.078144,107.647514 166.347221,107.162262 167.094933,106.191757 C167.842645,105.221252 168.216501,103.577492 168.216501,101.260475 L168.216501,101.260475 L168.216501,86.9163132 L171.024236,86.9163132 L171.024236,101.214745 L171.020645,101.611624 C170.967973,104.487205 170.335903,106.595711 169.124437,107.937141 C167.857904,109.339546 165.841116,110.040749 163.074072,110.040749 C160.256164,110.040749 158.175795,109.31414 156.832965,107.860924 C155.490135,106.407707 154.81872,104.161827 154.81872,101.123283 L154.81872,101.123283 L154.81872,86.9163132 L158.023201,86.9163132 Z M143.163556,86.3523026 C145.187974,86.3523026 147.558272,86.6825791 150.274451,87.3431321 L150.274451,87.3431321 L150.274451,90.3461075 L149.837464,90.1973016 C146.95628,89.2294584 144.716385,88.7455368 143.117777,88.7455368 C140.666095,88.7455368 138.768839,89.5737686 137.42601,91.2302323 C136.08318,92.8866959 135.411765,95.2240372 135.411765,98.2422562 C135.411765,101.118202 136.128958,103.386948 137.563344,105.048492 C138.997731,106.710037 140.956025,107.54081 143.438226,107.54081 C145.574546,107.54081 147.863461,106.885338 150.30497,105.574394 L150.30497,105.574394 L150.30497,108.31823 L149.884859,108.526816 C147.772381,109.536104 145.481082,110.040749 143.010961,110.040749 C139.501292,110.040749 136.7902,109.01181 134.877684,106.953934 C132.965169,104.896057 132.008911,101.982002 132.008911,98.2117691 C132.008911,94.4516983 132.982972,91.5351029 134.931092,89.4619828 C136.879213,87.3888626 139.623368,86.3523026 143.163556,86.3523026 Z M345.844435,86.9163132 L345.844435,89.3095475 L336.429366,89.3095475 L336.429366,96.5502243 L344.318492,96.5502243 L344.318492,98.9129715 L336.429366,98.9129715 L336.429366,107.083504 L346.50059,107.083504 L346.50059,109.476738 L333.224885,109.476738 L333.224885,86.9163132 L345.844435,86.9163132 Z M353.349034,86.9163132 L364.71731,104.339668 L364.71731,86.9163132 L367.464008,86.9163132 L367.464008,109.476738 L364.335824,109.476738 L352.952289,92.0533829 L352.952289,109.476738 L350.205591,109.476738 L350.205591,86.9163132 L353.349034,86.9163132 Z M120.522138,86.9163132 L120.899268,86.9212713 C122.882607,86.9741577 124.417631,87.4501357 125.504342,88.3492051 C126.658973,89.3044663 127.236288,90.6916275 127.236288,92.5106888 C127.236288,95.5187455 125.715431,97.6528397 122.673718,98.9129715 L122.673718,98.9129715 L130.211877,109.476738 L126.274944,109.476738 L119.850723,99.9342881 L116.859874,99.9342881 L116.859874,109.476738 L113.685913,109.476738 L113.685913,86.9163132 L120.522138,86.9163132 Z M107.829332,86.9163132 L107.829332,109.476738 L104.624852,109.476738 L104.624852,86.9163132 L107.829332,86.9163132 Z M179.902184,86.9163132 L179.902184,107.083504 L190.064965,107.083504 L190.064965,109.476738 L176.697703,109.476738 L176.697703,86.9163132 L179.902184,86.9163132 Z M202.879846,86.9163132 L211.699798,109.476738 L208.235907,109.476738 L205.779138,103.226891 L196.211475,103.226891 L193.724188,109.476738 L190.748598,109.476738 L199.705885,86.9163132 L202.879846,86.9163132 Z M389.92285,86.9163132 L389.92285,89.3095475 L381.911648,89.3095475 L381.911648,109.476738 L378.707168,109.476738 L378.707168,89.3095475 L370.695966,89.3095475 L370.695966,86.9163132 L389.92285,86.9163132 Z M221.844278,86.9163132 L222.221408,86.9212713 C224.204747,86.9741577 225.739772,87.4501357 226.826483,88.3492051 C227.981113,89.3044663 228.558428,90.6916275 228.558428,92.5106888 C228.558428,95.5187455 227.037572,97.6528397 223.995858,98.9129715 L223.995858,98.9129715 L231.534017,109.476738 L227.597084,109.476738 L221.172863,99.9342881 L218.182015,99.9342881 L218.182015,109.476738 L215.008053,109.476738 L215.008053,86.9163132 L221.844278,86.9163132 Z M293.43437,86.9163132 L304.802647,104.339668 L304.802647,86.9163132 L307.549345,86.9163132 L307.549345,109.476738 L304.421161,109.476738 L293.037625,92.0533829 L293.037625,109.476738 L290.290928,109.476738 L290.290928,86.9163132 L293.43437,86.9163132 Z M330.008186,86.9163132 L330.008186,89.3095475 L321.996985,89.3095475 L321.996985,109.476738 L318.792504,109.476738 L318.792504,89.3095475 L310.781303,89.3095475 L310.781303,86.9163132 L330.008186,86.9163132 Z M275.202391,88.7455368 C272.954168,88.7455368 271.199334,89.5763092 269.937887,91.237854 C268.676441,92.8993988 268.045718,95.2087937 268.045718,98.1660385 C268.045718,101.113121 268.671355,103.430138 269.922628,105.117088 C271.173901,106.804039 272.903304,107.647514 275.110835,107.647514 C277.420095,107.647514 279.205449,106.816742 280.466895,105.155197 C281.728341,103.493652 282.359065,101.148689 282.359065,98.120308 C282.359065,95.1833878 281.725798,92.8866959 280.459265,91.2302323 C279.192733,89.5737686 277.440441,88.7455368 275.202391,88.7455368 Z M201.002936,91.1235276 L197.1423,100.8489 L204.848313,100.8489 L201.002936,91.1235276 Z M220.19626,89.3095475 L218.182015,89.3095475 L218.182015,97.5410538 L219.219656,97.5410538 C223.248146,97.5410538 225.262391,95.9608078 225.262391,92.8003159 C225.262391,90.4731369 223.573681,89.3095475 220.19626,89.3095475 L220.19626,89.3095475 Z M118.874119,89.3095475 L116.859874,89.3095475 L116.859874,97.5410538 L117.897516,97.5410538 C121.926006,97.5410538 123.940251,95.9608078 123.940251,92.8003159 C123.940251,90.4731369 122.25154,89.3095475 118.874119,89.3095475 L118.874119,89.3095475 Z M35.0100211,9.58648303 C54.3142526,9.58648303 70.0200421,25.2759061 70.0200421,44.5600215 C70.0200421,63.8441369 54.3142526,79.53356 35.0100211,79.53356 C15.7057895,79.53356 -4.85861643e-13,63.8441369 -4.85861643e-13,44.5600215 C-4.85861643e-13,25.2759061 15.7057895,9.58648303 35.0100211,9.58648303 Z M103.472092,18.6901907 C108.773597,19.5675176 112.698976,22.5410369 115.786713,26.7739792 C118.115871,29.9630946 119.438576,33.5577869 119.746281,37.4748061 C120.353144,45.1380753 118.004755,51.7105561 112.134849,56.82296 C107.803471,60.5948253 102.717786,61.800883 97.1064389,60.7591907 C94.7345442,60.3173253 92.6724916,59.1774407 90.8860916,57.5594023 C89.9715232,56.7290369 89.0868705,55.8666523 88.1851232,55.0213446 C88.0462284,54.891133 87.8966495,54.7737292 87.6060389,54.5282484 C87.4692811,54.4898253 87.4500495,54.585883 87.4329547,55.8965369 C87.4073126,58.6907484 87.3966284,61.4892292 87.3859442,64.2855753 C87.3773968,66.6912869 87.3795337,69.0969984 87.3667126,71.5048446 C87.3645758,71.8271715 87.3987653,72.2049984 87.2449126,72.4547484 C87.0675547,72.7407869 86.7042916,73.1058061 86.4222284,73.1058061 C83.88366,73.11221 81.3472284,73.0652484 78.8107968,72.9884023 C77.9688811,72.9649215 77.7081863,72.5828253 77.7103232,71.5667484 C77.7295547,65.6495946 77.7722916,59.7324407 77.7765653,53.8131523 C77.7808389,47.1574215 77.8663126,40.5016907 77.6996389,33.8502292 C77.6013442,29.9823061 77.0778179,26.1250561 76.7401968,22.2656715 C76.6910495,21.6829215 76.6098495,21.1044407 76.5457442,20.5216907 C76.4837758,19.9901715 76.7102811,19.7425561 77.2615863,19.6742484 C80.0501653,19.3199023 82.8387442,18.94421 85.6251863,18.55571 C86.5504389,18.427633 86.8218179,18.5194215 86.9778074,19.4671907 C87.1829442,20.703133 87.2491863,21.9604215 87.37526,23.2070369 C87.4308179,23.7705753 87.4863758,24.3319792 87.5397968,24.8912484 C87.6103126,24.9019215 87.6808284,24.91046 87.7534811,24.9189984 C87.9222916,24.7653061 88.0996495,24.6137484 88.2620495,24.4515176 C90.1552916,22.590133 92.1788811,20.9123253 94.5956495,19.7446907 C97.4419232,18.372133 100.409997,18.1842869 103.472092,18.6901907 Z M35.0100211,16.4492715 C19.4922737,16.4492715 6.86994737,29.0584446 6.86994737,44.5600215 C6.86994737,60.0615984 19.4922737,72.6729061 35.0100211,72.6729061 C50.5277684,72.6729061 63.1522316,60.0615984 63.1522316,44.5600215 C63.1522316,29.0584446 50.5277684,16.4492715 35.0100211,16.4492715 Z M224.654544,19.7487465 C226.562744,20.6879773 228.248713,21.9153811 229.644071,23.5291503 C230.135544,24.0926888 230.663344,24.6263426 231.174049,25.1749388 C231.240292,25.1621311 231.308671,25.151458 231.377049,25.140785 C231.577913,24.2036888 231.768092,23.264458 231.990323,22.3294965 C232.133492,21.7232657 232.304439,21.1213042 232.494618,20.5236119 C232.644197,20.0539965 232.979681,19.8554773 233.49466,19.9024388 C235.721249,20.1094965 237.909376,20.5022657 240.024849,21.2365734 C240.915913,21.543958 240.960786,21.710458 240.800523,22.643285 C239.86886,28.0481311 239.125239,33.4785926 239.165839,38.9730926 C239.180492,40.6551696 239.269105,42.3365495 239.372272,44.0176307 L239.53051,46.5390782 C239.556227,46.9592987 239.580997,47.379513 239.603892,47.7997273 C239.798344,51.4136311 240.016302,55.0254003 240.202207,58.6393042 C240.253492,59.6532465 239.918007,59.9286119 238.920102,60.0033234 C237.236271,60.1228619 235.554576,60.2957657 233.870744,60.4473234 C233.633555,60.4686696 233.396365,60.4985542 233.159176,60.5070926 C231.607828,60.560458 231.411239,60.4238426 231.086439,58.8762465 C230.844976,57.7342273 230.661207,56.581535 230.434702,55.4373811 C230.306492,54.6859965 230.248797,54.3700734 228.894039,55.4800734 C226.940965,57.0298042 224.977207,58.5539196 222.697197,59.6212273 C218.607281,61.531708 214.429755,61.5103619 210.318471,59.9286119 C204.416513,57.6616503 200.672765,53.1981696 198.666271,47.340785 C196.627723,41.3873426 196.976028,35.3890734 199.51246,29.6683042 C202.160007,23.7063234 206.720028,19.8191888 213.228849,18.5661696 C217.122176,17.8169196 220.991997,17.9428619 224.654544,19.7487465 Z M154.540695,20.8850023 C158.604968,23.7219061 161.261063,27.6005023 162.3188,32.46956 C162.639326,33.94031 162.793179,35.4644253 162.844463,36.9714638 C162.953442,40.0367715 161.602958,41.5779638 158.557958,41.8896176 C153.408168,42.414733 148.249832,42.886483 143.091495,43.3496946 C140.264453,43.6037138 137.431,43.7936946 134.597547,44.01356 C134.492842,44.0220984 134.388137,44.051983 134.193684,44.0882715 C134.398821,45.6529446 135.003547,46.9870792 135.9694,48.1184253 C138.569937,51.1687907 141.828621,52.8316561 145.9164,52.7334638 C150.546937,52.6224638 154.551379,50.9275792 158.104947,48.0437138 C159.275937,47.0916753 159.288758,47.0831369 159.989642,48.4215407 C160.754632,49.879483 161.470474,51.3587715 162.254695,52.8060407 C162.566674,53.3866561 162.461968,53.8071753 162.043147,54.2554446 C159.186189,57.3036753 155.7822,59.4382907 151.688011,60.3711176 C146.843789,61.4747138 142.029484,61.3146176 137.345526,59.6410792 C132.375232,57.871483 128.657126,54.5713676 126.560884,49.7257907 C123.712474,43.1469061 123.635547,36.420733 126.620716,29.88881 C129.195611,24.2619638 133.328263,20.0781176 139.508011,18.4728869 C144.822337,17.0939253 149.952895,17.6809446 154.540695,20.8850023 Z M388.290066,19.1472119 C390.597856,20.0117311 392.623582,21.3010388 394.307414,23.1133273 C394.939919,23.792135 395.568151,24.4752119 396.356645,25.329058 C396.568193,24.441058 396.737003,23.7259619 396.907951,23.0130003 C397.100266,22.2167888 397.275487,21.4141734 397.499856,20.6265003 C397.651572,20.0800388 398.027656,19.7918657 398.625972,19.9135388 C400.762814,20.3447311 402.91034,20.7332311 405.030087,21.239135 C405.989529,21.4696734 406.013035,21.6980773 405.848498,22.6586542 C404.918972,28.0635003 404.175351,33.4939619 404.218087,38.9905965 L404.25835,40.0381525 L404.279555,40.5624368 L404.279555,40.5624368 L404.323904,41.6104313 C404.627622,48.5902781 405.08517,55.3780388 405.252319,58.5885003 C405.307877,59.6750196 404.987351,59.9290388 403.891151,60.0037503 C402.247919,60.1147503 400.611098,60.2919234 398.970003,60.4370773 C398.602466,60.4712311 398.234929,60.5032503 397.867393,60.5139234 C396.724182,60.5416734 396.538277,60.4413465 396.262624,59.295058 C395.993382,58.185058 395.835256,57.047308 395.606614,55.9245003 C395.570287,55.7515965 395.525414,55.5829619 395.469856,55.4015196 C395.343782,54.9788657 394.83094,54.8145003 394.480498,55.0855965 C393.655677,55.7217119 392.899235,56.3108657 392.138519,56.8914811 C389.708929,58.757135 387.104119,60.2876542 384.035614,60.8063657 C380.441445,61.4147311 376.954119,60.9280388 373.748856,59.2310196 C367.851172,56.1102119 364.282645,51.1152119 362.985582,44.6387888 C361.82314,38.8262311 362.485561,33.1417503 365.442951,27.9119426 C368.287087,22.8785196 372.562908,19.6381734 378.296056,18.558058 C381.653035,17.9262119 385.020698,17.9219426 388.290066,19.1472119 Z M172.588249,5.79220418 C175.062713,6.2105888 177.539313,6.62897341 180.015913,7.04735803 C180.868513,7.19464649 181.12066,7.44653111 181.08006,8.29824264 C180.951849,10.893935 180.785176,13.4896273 180.648425,16.0874542 C180.597134,17.0800503 180.558671,18.0769157 180.558671,19.0737811 C180.558671,19.9489734 180.906976,20.284108 181.789492,20.3075888 C182.524565,20.328935 183.263913,20.3139926 184.001123,20.3139926 L191.550586,20.3139926 C192.371134,20.3161273 192.546355,20.4655503 192.441649,21.2638965 C192.170271,23.336608 192.168134,25.4093196 192.270702,27.4905696 C192.321986,28.5898965 192.08266,28.8460503 190.952271,28.820435 C189.176555,28.7862811 187.400839,28.6795503 185.622986,28.5941657 C184.236176,28.5301273 182.849365,28.4831657 181.466828,28.3678965 C180.857828,28.3188003 180.637734,28.5898965 180.584313,29.1128773 C180.492428,30.0179542 180.351397,30.9230311 180.338576,31.8302426 C180.272334,36.6608773 180.225323,41.4957811 180.208228,46.330685 C180.206092,47.2122811 180.317207,48.1045503 180.460376,48.977608 C180.898428,51.658685 182.729702,52.751608 185.601618,52.5061273 C186.868765,52.3972619 188.116681,52.074935 189.373144,51.863608 C190.334723,51.7035119 191.298439,51.5604926 192.262155,51.4217426 C192.841239,51.3384926 193.123302,51.6053196 193.086976,52.196608 C192.971586,53.9939542 192.971586,54.461435 192.796365,56.9738773 C192.693797,58.412608 192.129671,58.7840311 191.063386,59.1639926 C189.046207,59.8876273 186.956376,60.2419734 184.834492,60.3487042 C182.82586,60.4511657 180.797997,60.5045311 178.795776,60.3529734 C175.955913,60.1352426 173.481449,59.0999542 172.02626,56.4252811 C171.186481,54.877685 170.983481,53.1806657 170.972797,51.4580311 C170.965674,50.3601273 170.976833,48.8960183 170.997173,47.4318303 L171.005213,46.8834711 C171.047386,44.1488078 171.117835,41.5747619 171.156565,41.5747619 L171.272113,34.0326123 C171.289999,32.7756401 171.306144,31.5185888 171.318965,30.2613003 C171.33606,28.8524542 170.714239,28.265435 169.288965,28.2504926 C168.549618,28.2440888 167.812407,28.1971273 167.077334,28.2419542 C166.370039,28.2825119 166.011049,27.9345696 165.889249,27.3133965 C165.767449,26.6794157 165.656334,26.0304926 165.649923,25.3858388 C165.639239,24.391108 165.686249,23.392108 165.77386,22.4016465 C165.863607,21.3983773 166.361492,20.950108 167.378628,20.883935 C167.985492,20.8412426 168.594492,20.8583196 169.201355,20.8412426 C170.586028,20.8049542 171.177934,20.217935 171.154428,18.8218965 C171.096734,15.417185 170.998439,12.0167426 170.955702,8.61416572 C170.947155,7.95243495 171.056134,7.27362726 171.218534,6.63110803 C171.410849,5.8775888 171.827534,5.66626188 172.588249,5.79220418 Z M271.524466,20.2044869 C273.864308,20.2471792 276.208424,20.2749292 278.550403,20.3176215 C279.229919,20.3304292 279.499161,20.6335446 279.458561,21.446833 C279.264108,22.6464869 279.148719,23.7372753 278.990593,25.5303523 C278.490572,29.45591 278.009782,35.8597561 278.22774,41.4567176 C278.291845,43.0961023 278.454245,44.7504292 278.770498,46.35566 C279.471382,49.9119292 281.928751,51.9355446 285.591298,52.3453907 C287.689677,52.5801984 290.392782,52.1874292 292.35654,50.9685638 C294.638687,49.5362369 297.294782,47.5190253 297.463593,43.4397753 C297.467866,38.346583 297.549066,33.2533907 297.591803,28.1580638 C297.606761,26.2518523 297.587529,24.3435061 297.596077,22.43516 C297.602487,20.8662176 298.151656,20.3133523 299.694456,20.3133523 C301.818477,20.3112176 303.944635,20.309083 306.070793,20.3133523 C307.113572,20.3154869 307.511024,20.5929869 307.519572,21.6261407 C307.543077,23.8546792 307.496066,26.0874869 307.410593,28.31816 C307.173403,34.5149484 306.946898,40.7074676 307.17554,46.9085253 C307.314435,50.6782561 307.369993,54.4479869 307.446919,58.2198523 C307.476835,59.630833 307.162719,59.9510253 305.752403,59.963833 C303.365551,59.9873138 300.978698,59.9552946 298.591845,60.0107946 C297.897372,60.0278715 297.647361,59.7354292 297.600351,59.1377369 C297.563367,58.6648375 297.491612,57.8417475 297.412927,56.9756154 L297.340991,56.1927681 C297.236553,55.06916 297.134519,54.028535 297.096056,53.7456984 C297.074687,53.5791984 296.963572,53.5834676 296.854593,53.692333 C296.320382,54.1213907 295.784035,54.552583 295.247687,54.9816407 C292.583045,57.1119869 289.706856,58.8602369 286.352014,59.6521792 C282.69374,60.5166984 279.063245,60.3843523 275.582329,58.9029292 C271.898414,57.3361215 270.007308,54.3220446 269.220951,50.5202946 C268.231593,45.7302176 268.242277,40.8739676 268.306382,36.0219869 C268.887603,27.0544676 269.468824,23.6903138 269.921835,21.2162946 C270.184666,20.54816 270.770161,20.1895446 271.524466,20.2044869 Z M327.436222,1.86002918 C327.348514,4.31328443 327.259941,7.68478153 327.186954,11.141543 L327.171559,11.8832791 C327.16651,12.1307571 327.161548,12.3783665 327.156676,12.6258039 L327.142343,13.3672961 C327.072108,17.06914 327.023813,20.6639587 327.01769,23.1272263 L327.017538,24.0497554 C327.021194,25.4786266 327.044791,26.3438736 327.094327,26.341933 C327.250317,26.341933 327.921285,25.7912023 328.209759,25.5499907 C330.882948,23.2937023 333.671527,21.19751 336.932348,19.8505676 C342.210348,17.6711253 347.456296,17.6625869 352.505654,20.4717407 C355.926738,22.373683 357.839212,25.3941638 358.260169,29.3047792 C358.619159,32.6454523 358.208885,35.8815292 356.659675,38.8977407 C355.093369,41.9438369 352.552664,43.9311638 349.467064,45.2738369 C348.063159,45.8864715 348.037517,45.8736638 348.642243,47.3166638 C349.593138,49.596433 351.056875,51.5645484 352.509927,53.5326638 C353.745022,55.201933 354.997212,56.8583946 356.275043,58.5618176 C356.612664,59.0122215 356.345559,59.6547407 355.787843,59.7443946 C355.364748,59.8127023 354.883959,59.8062984 354.53138,59.8297792 C352.25778,59.9706638 349.98418,60.0432407 347.708443,60.1051446 C345.909222,60.0966061 344.986106,59.43701 344.201885,58.4529523 C342.312917,55.4217984 340.387622,52.4119907 338.443096,49.4171253 C338.246506,49.1118753 337.953759,48.6934907 336.673791,48.5910292 C333.237748,48.4117215 330.910727,48.4544138 327.534517,48.4416061 L327.534517,49.2100676 C327.534517,52.3543561 327.536654,55.49651 327.534517,58.6386638 C327.53238,59.9343753 327.310148,60.1521061 326.025906,60.1458371 C323.683927,60.13076 321.339812,60.1158176 318.999969,60.0944715 C318.128138,60.0880676 317.846075,59.8617984 317.713591,59.0271638 C317.664443,58.7197792 317.649485,58.41026 317.649485,58.1007407 C317.643075,48.708433 317.694359,39.3139907 317.617433,29.921683 C317.576833,24.8306253 317.307591,19.7438369 317.164422,14.6527792 C317.044759,10.3408561 316.955012,6.03106764 316.863127,1.71700995 C316.846033,0.931471491 317.111001,0.724413798 317.918727,0.664644567 C320.425243,0.476798414 322.927485,0.248394567 325.429727,0.0733561059 C327.412717,-0.0653938941 327.511012,-0.229759279 327.436222,1.86002918 Z M259.3122,2.12280034 L259.190045,4.72002982 L258.930148,9.9147875 C258.758627,13.3781916 258.602158,16.8421932 258.530116,20.3075888 C258.501701,21.6567669 258.488379,23.7760414 258.485746,26.3505002 L258.485763,28.4232076 C258.488833,31.7440742 258.505463,35.5958096 258.528206,39.4461614 L258.536004,40.7288307 C258.584026,48.4157773 258.653198,55.8606326 258.683968,58.8053773 C258.694653,59.8662811 258.549347,59.9922234 257.478789,59.9922234 L250.516958,59.9922234 C249.273316,59.9922234 249.155789,59.8812234 249.164337,58.606858 C249.165747,58.3537851 249.166644,58.052329 249.167053,57.7064702 L249.166835,56.5396657 C249.161536,52.3599686 249.112385,44.3731688 249.040749,36.2173873 L249.030107,35.0230743 C248.938333,24.8683392 248.813379,14.7267368 248.696368,11.6004926 C248.578842,8.43912726 248.504053,5.27562726 248.429263,2.11212726 C248.405758,1.14301188 248.649358,0.914608029 249.613074,0.938088798 C250.369516,0.957300337 251.128095,1.06403111 251.884537,1.05976188 C253.985053,1.03841572 256.083432,0.972242644 258.181811,0.935954183 C259.290832,0.916742644 259.361347,0.999992644 259.3122,2.12280034 Z M48.46828,31.1147196 L48.46828,58.002335 L21.5526168,58.002335 L21.5526168,31.1147196 L48.46828,31.1147196 Z M91.8498074,29.3995561 C89.0719126,32.2385946 87.74066,35.6433061 87.7255488,39.59021 C87.7107442,43.1913061 88.7898495,46.3953638 91.1788389,49.1319407 C94.9225863,53.420383 101.638681,53.8515753 105.681586,49.6997484 C108.542818,46.7646523 110.015102,43.2745561 109.893302,39.1590176 C109.760818,34.6720561 107.888944,31.0474792 104.254176,28.4219023 C100.717702,25.864633 95.2067863,25.9670946 91.8498074,29.3995561 Z M212.880544,28.4024773 C209.044913,31.0835542 206.937986,35.6494965 207.126028,40.219708 C207.457239,46.0322657 211.162523,49.8681696 214.404113,51.2620734 C219.468428,53.4415157 224.740018,51.6676503 227.859807,47.018458 C231.112081,42.1707465 230.778734,34.6611696 226.554197,30.090958 C223.096786,26.3511119 217.053797,25.4887273 212.880544,28.4024773 Z M378.007582,28.3495388 C374.135624,31.0220773 371.902624,35.0735773 372.17614,40.2009234 C372.349224,41.7613273 372.492393,42.5447311 372.98814,43.977058 C374.131351,47.279308 376.219045,49.8792696 379.492687,51.2731734 C384.548456,53.4270003 389.779445,51.6680773 392.897098,47.0402311 C396.166466,42.1861157 395.841666,34.6615965 391.580803,30.0593657 C388.176814,26.3856926 382.131687,25.5019619 378.007582,28.3495388 Z M41.5983326,37.9796426 L28.4225642,37.9796426 L28.4225642,51.1438157 L41.5983326,51.1438157 L41.5983326,37.9796426 Z M335.686569,28.3057792 C332.534727,29.8320292 329.987612,32.1374138 327.594348,34.6370484 C327.476822,34.7608561 327.397759,34.9764523 327.397759,35.1493561 L327.429812,41.0451638 C330.308138,41.493433 333.656569,41.7261061 336.562675,41.6364523 C338.718748,41.5724138 340.817127,41.1647023 342.817212,40.3215292 C346.535317,38.7589907 348.347359,36.0757792 348.110169,32.4106446 C347.967001,30.2183946 346.697717,28.3634138 344.622843,27.5885484 C341.530833,26.4358561 338.665327,26.8627792 335.686569,28.3057792 Z M142.463263,26.1169446 C137.907516,26.9131561 134.324032,31.0244253 134.035558,35.6458676 C133.986411,36.4164638 134.277021,36.7772138 135.061242,36.8284446 C135.364191,36.8470364 139.044674,36.5357735 142.89584,36.1872689 L143.667399,36.1171581 C147.52707,35.7649885 151.343634,35.3950848 151.910242,35.30006 C152.540611,35.1954638 152.7372,34.8966176 152.752158,34.19006 C152.784211,32.4994446 151.916653,30.4096561 150.465737,28.928233 C148.339579,26.7487907 145.523221,25.5811561 142.463263,26.1169446 Z" id="P2925" fill="#009ADE" fill-rule="nonzero"></path>
                </g>
            </g>
        </g>
    </g>
</svg>