<?xml version="1.0" encoding="UTF-8"?>
<svg width="72px" height="73px" viewBox="0 0 72 73" version="1.1" xmlns="http://www.w3.org/2000/svg" xmlns:xlink="http://www.w3.org/1999/xlink">
    <title>Logo/03_Symbol/01_Primary Copy</title>
    <defs>
        <filter id="filter-1">
            <feColorMatrix in="SourceGraphic" type="matrix" values="0 0 0 0 1.000000 0 0 0 0 1.000000 0 0 0 0 1.000000 0 0 0 1.000000 0"></feColorMatrix>
        </filter>
    </defs>
    <g id="01_Home-v0.3" stroke="none" stroke-width="1" fill="none" fill-rule="evenodd">
        <g id="Logo/03_Symbol/01_Primary-Copy" transform="translate(0.000000, 0.500000)" filter="url(#filter-1)">
            <g>
                <path d="M35.8043077,1.0220884e-13 C55.5452308,1.0220884e-13 71.6067692,16.0596923 71.6067692,35.8024615 C71.6067692,55.5452308 55.5452308,71.6049231 35.8043077,71.6049231 C16.0615385,71.6049231 4.63492492e-13,55.5452308 4.63492492e-13,35.8024615 C4.63492492e-13,16.0596923 16.0615385,1.0220884e-13 35.8043077,1.0220884e-13 Z M35.8043077,8.39815385 C20.6916923,8.39815385 8.39815385,20.6916923 8.39815385,35.8024615 C8.39815385,50.9132308 20.6916923,63.2067692 35.8043077,63.2067692 C50.9169231,63.2067692 63.2104615,50.9132308 63.2104615,35.8024615 C63.2104615,20.6916923 50.9169231,8.39815385 35.8043077,8.39815385 Z M50.0352,21.5721231 L50.0352,50.0342769 L21.5730462,50.0342769 L21.5730462,21.5721231 L50.0352,21.5721231 Z M41.6352,29.9702769 L29.9693538,29.9702769 L29.9693538,41.6361231 L41.6352,41.6361231 L41.6352,29.9702769 Z" id="Logo-/-Symbol-/-01_Primary" fill="#009ADE"></path>
            </g>
        </g>
    </g>
</svg>