<?xml version="1.0" encoding="UTF-8"?>
<svg width="71px" height="71px" viewBox="0 0 71 71" version="1.1" xmlns="http://www.w3.org/2000/svg" xmlns:xlink="http://www.w3.org/1999/xlink">
    <title>to-start-icon-svg</title>
    <g id="Page-1" stroke="none" stroke-width="1" fill="none" fill-rule="evenodd">
        <path d="M35.0100211,0.58648303 C54.3142526,0.58648303 70.0200421,16.2759061 70.0200421,35.5600215 C70.0200421,54.8441369 54.3142526,70.53356 35.0100211,70.53356 C15.7057895,70.53356 -3.55271368e-14,54.8441369 -3.55271368e-14,35.5600215 C-3.55271368e-14,16.2759061 15.7057895,0.58648303 35.0100211,0.58648303 Z M35.0100211,7.4492715 C19.4922737,7.4492715 6.86994737,20.0584446 6.86994737,35.5600215 C6.86994737,51.0615984 19.4922737,63.6729061 35.0100211,63.6729061 C50.5277684,63.6729061 63.1522316,51.0615984 63.1522316,35.5600215 C63.1522316,20.0584446 50.5277684,7.4492715 35.0100211,7.4492715 Z M43.8099397,35 L53,35.0021432 L35,53 L17,35.0021432 L26.1857733,35.0021432 L34.9978565,43.811034 L43.8099397,35 Z M35,17 L53,34.9978568 L43.8099397,35 L34.9978565,26.188966 L26.1857733,34.9978568 L17,34.9978568 L35,17 Z" id="to-start-icon-svg" fill="#009ADE" fill-rule="nonzero"></path>
    </g>
</svg>