<?xml version="1.0" encoding="UTF-8"?>
<svg width="48px" height="39px" viewBox="0 0 48 39" version="1.1" xmlns="http://www.w3.org/2000/svg" xmlns:xlink="http://www.w3.org/1999/xlink">
    <title>Path</title>
    <g id="Symbols" stroke="none" stroke-width="1" fill="none" fill-rule="evenodd">
        <g id="ORGANISMO-/-Footer" transform="translate(-442.000000, -377.000000)" fill="#000000" fill-rule="nonzero">
            <g id="Group" transform="translate(189.000000, 76.000000)">
                <g id="RRSS" transform="translate(157.000000, 296.000000)">
                    <path d="M144,9.56825339 C142.215,10.3429864 140.313,10.8565068 138.33,11.1058462 C140.37,9.90070588 141.927,8.00691403 142.659,5.72427149 C140.757,6.84629864 138.657,7.63884163 136.419,8.08112217 C134.613,6.17842534 132.039,5 129.231,5 C123.783,5 119.397,9.37531222 119.397,14.7390769 C119.397,15.5108416 119.463,16.2529231 119.625,16.9593846 C111.444,16.5645973 104.205,12.6849955 99.342,6.77505882 C98.493,8.23250679 97.995,9.90070588 97.995,11.696543 C97.995,15.0685611 99.75,18.0576652 102.366,19.7881991 C100.785,19.7585158 99.234,19.304362 97.92,18.5889955 C97.92,18.6186787 97.92,18.657267 97.92,18.6958552 C97.92,23.4273665 101.331,27.3574299 105.804,28.2627692 C105.003,28.479457 104.13,28.5833484 103.224,28.5833484 C102.594,28.5833484 101.958,28.5477285 101.361,28.4171222 C102.636,32.2729774 106.254,35.1077285 110.556,35.1997466 C107.208,37.791095 102.957,39.3524344 98.355,39.3524344 C97.548,39.3524344 96.774,39.3168145 96,39.2188597 C100.359,42.000181 105.525,43.5882353 111.096,43.5882353 C129.204,43.5882353 139.104,28.7466063 139.104,15.8818824 C139.104,15.4514751 139.089,15.0359095 139.068,14.6233122 C141.021,13.2519457 142.662,11.5392217 144,9.56825339 Z" id="Path"></path>
                </g>
            </g>
        </g>
    </g>
</svg>