<?xml version="1.0" encoding="UTF-8"?>
<svg width="48px" height="33px" viewBox="0 0 48 33" version="1.1" xmlns="http://www.w3.org/2000/svg" xmlns:xlink="http://www.w3.org/1999/xlink">
    <title>You</title>
    <g id="Symbols" stroke="none" stroke-width="1" fill="none" fill-rule="evenodd">
        <g id="ORGANISMO-/-Footer" transform="translate(-634.000000, -380.000000)" fill="#000000" fill-rule="nonzero">
            <g id="Group" transform="translate(189.000000, 76.000000)">
                <g id="RRSS" transform="translate(157.000000, 296.000000)">
                    <path d="M333.96,11.1743316 C332.658,8.86245989 331.245,8.43721925 328.368,8.27550802 C325.494,8.08085561 318.267,8 312.006,8 C305.733,8 298.503,8.08085561 295.632,8.27251337 C292.761,8.43721925 291.345,8.85946524 290.031,11.1743316 C288.69,13.4832086 288,17.460107 288,24.4616043 C288,24.4675936 288,24.4705882 288,24.4705882 C288,24.4765775 288,24.4795722 288,24.4795722 L288,24.4855615 C288,31.4571123 288.69,35.4639572 290.031,37.748877 C291.345,40.0607487 292.758,40.48 295.629,40.6746524 C298.503,40.8423529 305.733,40.9411765 312.006,40.9411765 C318.267,40.9411765 325.494,40.8423529 328.371,40.6776471 C331.248,40.4829947 332.661,40.0637433 333.963,37.7518717 C335.316,35.4669519 336,31.460107 336,24.4885561 C336,24.4885561 336,24.4795722 336,24.4735829 C336,24.4735829 336,24.4675936 336,24.4645989 C336,17.460107 335.316,13.4832086 333.96,11.1743316 Z M306,33.4545455 L306,15.486631 L321,24.4705882 L306,33.4545455 Z" id="You"></path>
                </g>
            </g>
        </g>
    </g>
</svg>